<svg xmlns:xlink="http://www.w3.org/1999/xlink" xmlns="http://www.w3.org/2000/svg" height="24" width="24" viewBox="0 0 24 24">
    <path fill="#7893ab" fill-rule="evenodd" d="M 9.5 14.5 L 9 11 L 8 11 L 9 18 L 10 18 L 11 11 L 10 11 L 9.5 14.5 Z M 9.5 14.5"/>
    <path fill="#7893ab" fill-rule="evenodd" d="M 7 11 L 8 11 L 8 18 L 7 18 L 7 11 Z M 7 11"/>
    <path fill="#7893ab" fill-rule="evenodd" d="M 13 18 L 14.3 18 C 16 18 16 17.1 16 16.5 L 16 12.2 C 16 11.6 15.3 11 14.3 11 L 13 11 L 13 18 Z M 15 15.8 C 15 16.8 14 16.8 14 16.8 L 14 11.8 C 14 11.8 15 11.8 15 12.8 L 15 15.8 Z M 15 15.8"/>
    <path fill="#7893ab" fill-rule="evenodd" d="M 4.8 18 L 6 18 L 6 11 L 4.8 11 L 4.8 18 Z M 4.8 18"/>
    <path fill="#7893ab" fill-rule="evenodd" d="M 11 11 L 11 18 L 12 18 L 12 11 L 11.3 11 L 11 11 Z M 11 11"/>
    <path fill="#7893ab" fill-rule="evenodd" d="M 18 13 L 18 11 L 17 11 L 17 18 L 19 18 C 19.4 18 20 17.2 20 16.6 L 20 14.1 C 20 13.1 19.3 13 19.3 13 L 18 13 Z M 18 16.8 L 18 13.8 C 18 13.8 19 13.8 19 14.8 L 19 15.8 C 19 16.8 18 16.8 18 16.8 Z M 18 16.8"/>
    <path fill="#7893ab" fill-rule="evenodd" d="M 24 22 L 0 22 L 0 7 L 24 7 L 24 22 L 24 22 Z M 1 21 L 23 21 L 23 8 L 1 8 L 1 21 L 1 21 Z M 1 21"/>
    <path fill-opacity="0.01" fill="#1e252b" fill-rule="evenodd" d="M 0 0 L 24 0 L 24 24 L 0 24 L 0 0 Z M 0 0"/>
</svg>