<svg xmlns:xlink="http://www.w3.org/1999/xlink" xmlns="http://www.w3.org/2000/svg" height="24" width="24" viewBox="0 0 24 24">
    <path fill-opacity="0.01" fill="#1e252b" fill-rule="evenodd" d="M 0 0 L 24 0 L 24 24 L 0 24 L 0 0 Z M 0 0"/>
    <path fill="#7893ab" fill-rule="evenodd" d="M 12.5 24 C 7.29 24 3 19.79 3 14.45 C 3 9.11 7.29 5 12.5 5 C 17.71 5 22 9.21 22 14.55 C 22 19.89 17.71 24 12.5 24 L 12.5 24 Z M 12.5 6.03 C 7.9 6.03 4.02 9.83 4.02 14.55 C 4.02 19.28 7.8 23.08 12.5 23.08 C 17.2 23.08 20.98 19.28 20.98 14.55 C 20.98 9.83 17.1 6.03 12.5 6.03 L 12.5 6.03 Z M 15.87 20.3 C 14.54 20.3 13.42 19.17 13.42 17.84 C 13.42 16.5 14.54 15.48 15.87 15.48 C 17.2 15.48 18.32 16.61 18.32 17.94 C 18.32 19.17 17.2 20.3 15.87 20.3 L 15.87 20.3 Z M 15.87 16.5 C 15.05 16.5 14.44 17.12 14.44 17.94 C 14.44 18.76 15.05 19.38 15.87 19.38 C 16.69 19.38 17.3 18.76 17.3 17.94 C 17.3 17.12 16.69 16.5 15.87 16.5 L 15.87 16.5 Z M 9.13 20.3 C 7.8 20.3 6.68 19.17 6.68 17.84 C 6.68 16.5 7.8 15.48 9.13 15.48 C 10.46 15.48 11.48 16.5 11.48 17.84 C 11.48 19.17 10.46 20.3 9.13 20.3 L 9.13 20.3 Z M 9.13 16.5 C 8.31 16.5 7.7 17.12 7.7 17.94 C 7.7 18.76 8.31 19.38 9.13 19.38 C 9.95 19.38 10.56 18.76 10.56 17.94 C 10.56 17.12 9.84 16.5 9.13 16.5 L 9.13 16.5 Z M 12.5 15.99 C 11.68 15.99 10.97 15.27 10.97 14.45 C 10.97 13.63 11.68 12.91 12.5 12.91 C 13.32 12.91 14.03 13.63 14.03 14.45 C 14.03 15.27 13.32 15.99 12.5 15.99 L 12.5 15.99 Z M 12.5 13.94 C 12.19 13.94 11.99 14.14 11.99 14.45 C 11.99 14.76 12.19 14.96 12.5 14.96 C 12.81 14.96 13.01 14.76 13.01 14.45 C 13.01 14.14 12.81 13.94 12.5 13.94 L 12.5 13.94 Z M 15.87 13.42 C 14.54 13.42 13.52 12.39 13.52 11.06 C 13.52 9.72 14.65 8.59 15.97 8.59 C 17.3 8.59 18.42 9.72 18.42 11.06 C 18.42 12.39 17.2 13.42 15.87 13.42 L 15.87 13.42 Z M 15.87 9.62 C 15.05 9.62 14.44 10.24 14.44 11.06 C 14.44 11.88 15.16 12.39 15.87 12.39 C 16.59 12.39 17.3 11.78 17.3 10.96 C 17.3 10.14 16.69 9.62 15.87 9.62 L 15.87 9.62 Z M 9.13 13.42 C 7.8 13.42 6.68 12.39 6.68 11.06 C 6.68 9.72 7.8 8.59 9.13 8.59 C 10.46 8.59 11.48 9.72 11.48 11.06 C 11.48 12.39 10.46 13.42 9.13 13.42 L 9.13 13.42 Z M 9.13 9.62 C 8.31 9.62 7.7 10.24 7.7 11.06 C 7.7 11.88 8.31 12.39 9.13 12.39 C 9.84 12.39 10.46 11.78 10.46 11.06 C 10.46 10.34 9.84 9.62 9.13 9.62 L 9.13 9.62 Z M 9.13 9.62"/>
</svg>